<svg xmlns="http://www.w3.org/2000/svg" viewBox="0 0 32 32">
  <rect width="32" height="32" rx="4" fill="#1a1a1a"/>
  <rect x="4" y="4" width="24" height="24" rx="2" fill="#2a2a2a"/>
  <!-- Pads grid -->
  <g fill="#333">
    <rect x="6" y="6" width="4" height="4" rx="0.5"/>
    <rect x="11" y="6" width="4" height="4" rx="0.5"/>
    <rect x="16" y="6" width="4" height="4" rx="0.5"/>
    <rect x="21" y="6" width="4" height="4" rx="0.5"/>
    <rect x="6" y="11" width="4" height="4" rx="0.5"/>
    <rect x="11" y="11" width="4" height="4" rx="0.5"/>
    <rect x="16" y="11" width="4" height="4" rx="0.5"/>
    <rect x="21" y="11" width="4" height="4" rx="0.5"/>
    <rect x="6" y="16" width="4" height="4" rx="0.5"/>
    <rect x="11" y="16" width="4" height="4" rx="0.5"/>
    <rect x="16" y="16" width="4" height="4" rx="0.5"/>
    <rect x="21" y="16" width="4" height="4" rx="0.5"/>
    <rect x="6" y="21" width="4" height="4" rx="0.5"/>
    <rect x="11" y="21" width="4" height="4" rx="0.5"/>
    <rect x="16" y="21" width="4" height="4" rx="0.5"/>
    <rect x="21" y="21" width="4" height="4" rx="0.5"/>
  </g>
  <!-- Accent highlight -->
  <rect x="6" y="21" width="4" height="4" rx="0.5" fill="#ff6600"/>
</svg>
